<?xml version="1.0" standalone="no"?>
<!DOCTYPE svg PUBLIC "-//W3C//DTD SVG 1.1//EN" "http://www.w3.org/Graphics/SVG/1.1/DTD/svg11.dtd" >
<!--
2013-9-30: Created.
-->
<svg>
<metadata>
Created by iconfont
</metadata>
<defs>

<font id="iconfont" horiz-adv-x="1024" >
  <font-face
    font-family="iconfont"
    font-weight="500"
    font-stretch="normal"
    units-per-em="1024"
    ascent="896"
    descent="-128"
  />
    <missing-glyph />
    
    <glyph glyph-name="en" unicode="&#58909;" d="M512 748c-247.424 0-448-200.576-448-448s200.576-448 448-448 448 200.576 448 448S759.424 748 512 748zM512-52c-194.404 0-352 157.596-352 352s157.596 352 352 352 352-157.596 352-352S706.404-52 512-52zM512 172 256 172l0 320 256 0 0-59.636L329.498 432.364l0-68.364 164.638 0 0-59.636L329.498 304.364l0-75.636L512 228.728 512 172zM767.976 173.454l-72.029 0 0 128c0.965 34.909-13.229 51.864-42.629 50.909-28.435-1.954-43.617-19.886-45.569-53.818l0-125.091L535.72 173.454 535.72 401.818l72.029 0 0-34.909c18.605 24.228 43.594 37.318 74.969 39.273 57.811 0.955 86.223-30.067 85.258-93.091L767.976 173.454z"  horiz-adv-x="1024" />

    
    <glyph glyph-name="comment" unicode="&#58966;" d="M510.222005-37.710488c-28.386514 0-56.08025 2.605338-83.001389 7.082302L232.647129-149.708282 232.647129 48.569574C131.207809 120.399529 66.091766 230.565605 66.091766 354.286394c0 216.510102 198.847837 391.995859 444.129216 391.995859 245.302869 0 444.148659-175.48678 444.148659-391.995859C954.370665 137.818247 755.523851-37.710488 510.222005-37.710488zM510.222005 690.281821c-214.616986 0-388.617925-150.415778-388.617925-335.99645 0-113.829512 65.664535-214.313064 165.860539-275.071869l-1.749854-129.865743 130.679271 79.237669c30.096459-6.470365 61.411675-10.29753 93.826945-10.29753 214.638475 0 388.638391 150.457734 388.638391 335.997474C898.860397 539.866043 724.860481 690.281821 510.222005 690.281821zM732.306056 298.286985c-30.664394 0-55.530734 25.069979-55.530734 55.999408 0 30.930453 24.866341 55.999408 55.530734 55.999408 30.667463 0 55.512315-25.068955 55.512315-55.999408C787.818371 323.356964 762.97352 298.286985 732.306056 298.286985zM510.222005 298.286985c-30.644951 0-55.511291 25.069979-55.511291 55.999408 0 30.930453 24.866341 55.999408 55.511291 55.999408 30.66644 0 55.532781-25.068955 55.532781-55.999408C565.753763 323.356964 540.887422 298.286985 510.222005 298.286985zM288.157397 298.286985c-30.665417 0-55.510268 25.069979-55.510268 55.999408 0 30.930453 24.844851 55.999408 55.510268 55.999408 30.665417 0 55.531757-25.068955 55.531757-55.999408C343.689155 323.356964 318.822814 298.286985 288.157397 298.286985z"  horiz-adv-x="1024" />

    
    <glyph glyph-name="audio" unicode="&#58882;" d="M882.596448 266.514636c-1.943907-15.739375-3.19804-31.541457-5.894427-47.155419-15.300429-88.855358-55.871647-162.911941-128.297857-218.156522-5.706307-4.389467-11.788855-8.528108-18.184936-11.788855-13.670055-6.960441-29.911084-1.818494-37.686712 11.287201-7.712921 13.042988-4.201347 30.099204 8.653521 38.376485 59.634048 38.501898 95.690386 94.060012 112.244948 161.720514 24.079363 98.386773 11.475321 192.446785-41.449112 279.797183-18.749296 30.977097-42.264299 58.066381-71.172076 80.13913-13.293815 10.158481-16.115615 27.465524-6.709614 40.445805 9.594121 13.293815 27.34011 16.241029 40.947459 6.145254 30.538151-22.63711 55.432701-50.7297 76.815677-82.020331 42.076179-61.577955 64.713288-129.802817 69.541702-204.04752 0.125413-2.320147 0.815187-4.640294 1.191427-6.960441C882.596448 298.369626 882.596448 282.442131 882.596448 266.514636zM535.20147 298.996693c0-88.980772 0.062707-177.961543-0.125413-266.942315 0-5.894427-0.877893-12.102388-2.884507-17.620576-3.135334-8.716228-10.660135-12.102388-19.250949-8.653521-5.706307 2.25744-11.161788 5.706307-15.927495 9.594121C426.530802 73.942437 356.23662 132.635885 285.628904 191.078506c-3.135334 2.63368-8.026454 4.326761-12.165095 4.326761-31.604164 0.37624-63.145622 0.18812-94.749786 0.250827-22.63711 0.062707-37.185058 14.547949-37.185058 37.059645-0.062707 44.835273-0.062707 89.733252 0 134.568524 0 22.135456 14.610655 36.746111 36.683405 36.808818 31.604164 0.062707 63.208328-0.18812 94.749786 0.250827 4.326761 0.062707 9.531415 1.818494 12.792162 4.577587 70.043356 57.940968 139.773178 116.195468 209.753827 174.261849 4.953827 4.075934 10.409308 7.963748 16.241029 10.472015 9.656828 4.201347 17.934109 0.250827 21.132149-9.782241 1.567667-4.953827 2.194734-10.409308 2.194734-15.613962C535.264176 478.40049 535.20147 388.729945 535.20147 298.996693zM746.648377 285.013105c-0.75248-60.637355-24.33019-120.584936-79.19853-166.235395-6.835028-5.643601-14.234415-10.848255-21.947336-15.112309-13.732762-7.650214-30.412737-2.63368-38.313778 10.722841-7.901041 13.293815-4.201347 30.538151 8.967055 38.878138 44.270912 28.029884 66.406369 69.416289 71.297489 120.334109 6.145254 63.521862-12.980282 118.327495-59.383221 162.911941-3.825107 3.636987-8.026454 6.897734-12.290508 10.095775-13.670055 10.346601-16.742682 27.402817-7.211268 40.884752 9.468708 13.293815 27.026577 16.303735 40.947459 6.145254 28.970484-21.069443 51.043233-48.221433 67.911329-79.637477C737.305083 376.690263 746.460257 336.683405 746.648377 285.013105z"  horiz-adv-x="1024" />

    
    <glyph glyph-name="sousuo" unicode="&#58960;" d="M949.284321-3.56699 760.985748 184.731584c56.878428 68.365041 91.092671 156.254763 91.092671 252.139577 0 217.868029-176.61651 394.484539-394.484539 394.484539s-394.484539-176.61651-394.484539-394.484539 176.61651-394.484539 394.484539-394.484539c96.92961 0 185.693236 34.960233 254.371408 92.957135l188.114378-188.115402c6.794753-6.794753 15.697517-10.190083 24.602328-10.190083 8.902764 0 17.808598 3.397377 24.602328 10.190083C962.870758-39.184185 962.870758-17.155473 949.284321-3.56699zM457.593879 111.971443c-43.891649 0-86.433558 8.580422-126.44483 25.50386-38.679951 16.360619-73.433476 39.796378-103.294574 69.657476-29.861098 29.861098-53.296857 64.6136-69.657476 103.294574-16.923438 40.010249-25.50386 82.552158-25.50386 126.44483s8.580422 86.433558 25.50386 126.44483c16.360619 38.679951 39.796378 73.433476 69.657476 103.294574 29.861098 29.861098 64.6136 53.296857 103.294574 69.657476 40.010249 16.923438 82.552158 25.50386 126.44483 25.50386 43.891649 0 86.433558-8.580422 126.44483-25.50386 38.679951-16.360619 73.433476-39.796378 103.294574-69.657476 29.860075-29.861098 53.296857-64.6136 69.657476-103.294574 16.923438-40.010249 25.50386-82.552158 25.50386-126.44483s-8.580422-86.433558-25.50386-126.44483c-16.360619-38.679951-39.796378-73.433476-69.657476-103.294574-29.861098-29.861098-64.614623-53.296857-103.294574-69.657476C544.027437 120.551866 501.485529 111.971443 457.593879 111.971443z"  horiz-adv-x="1024" />

    
    <glyph glyph-name="user" unicode="&#58949;" d="M608.188 338.09799999999996L434.715 338.09799999999996c-161.213 0-292.327-131.238-292.327-292.602l0-17.361c0-84.354 129.017-84.354 292.327-84.354l173.474 0c156.884 0 292.356 0 292.356 84.354l0 17.361C900.545 206.82899999999995 769.397 338.09799999999996 608.188 338.09799999999996L608.188 338.09799999999996zM512.785 360.43100000000004c127.658 0 231.524 104.015 231.524 231.894 0 127.873-103.866 231.895-231.524 231.895-127.654 0-231.53-104.044-231.53-231.9C281.255 464.474 385.131 360.43100000000004 512.785 360.43100000000004L512.785 360.43100000000004zM512.785 360.43100000000004"  horiz-adv-x="1024" />

    
    <glyph glyph-name="dianji" unicode="&#59035;" d="M398.647-58.198999999999955L179.278 215.81399999999996c0 0-11.085 102.239 87.737 59.17 57.017-25.586 77.367-79.298 77.367-79.298l2.043 417.39c0 0 58.947 87.901 110.234 0l0.934-264.254c0 0 63.75 86.742 138.747-6.064 0 0 56.248 94.518 135.27-4.577 0 0 56.03 109.298 112.278-9.485l0-331.75c0 0-3.256-25.862-48.862-55.145L398.647-58.198999999999955 398.647-58.198999999999955zM398.647-58.198999999999955M400.576 825C278.208 825 178.95 725.741 178.95 603.374c0-82.111 45.164-152.972 111.502-191.245l0 68.489c-34.299 30.386-56.357 74.228-56.357 123.636 0 91.43 74.166 165.602 165.597 165.602 91.433 0 165.602-74.171 165.602-165.602 0-48.415-21.175-91.595-54.265-121.871l0-70.086c66.121 38.379 111.174 109.13 111.174 191.077C622.203 725.741 522.944 825 400.576 825L400.576 825zM400.576 825"  horiz-adv-x="1024" />

    
    <glyph glyph-name="menu" unicode="&#58885;" d="M867.995 436.353h-711.99c-27.921 0-52.353-24.434-52.353-52.353s24.434-52.353 52.353-52.353h711.99c27.921 0 52.353 24.434 52.353 52.353s-24.434 52.353-52.353 52.353zM867.995 132.70899999999995h-711.99c-27.921 0-52.353-24.434-52.353-52.353s24.434-52.353 52.353-52.353h711.99c27.921 0 52.353 24.434 52.353 52.353s-24.434 52.353-52.353 52.353zM156.005 635.2909999999999h711.99c27.921 0 52.353 24.434 52.353 52.353s-24.434 52.353-52.353 52.353h-711.99c-27.921 0-52.353-24.434-52.353-52.353s24.434-52.353 52.353-52.353z"  horiz-adv-x="1024" />

    
    <glyph glyph-name="guanbi" unicode="&#58906;" d="M512 896C229.187368 896 0 666.812632 0 384 0 101.187368 229.187368-128 512-128 794.812632-128 1024 101.187368 1024 384 1024 666.812632 794.812632 896 512 896ZM512-74.105263C259.368421-74.105263 53.894737 131.368421 53.894737 384 53.894737 636.631579 259.368421 842.105263 512 842.105263 764.631579 842.105263 970.105263 636.631579 970.105263 384 970.105263 131.368421 764.631579-74.105263 512-74.105263ZM550.130526 384 719.629474 553.633684C730.273684 564.143158 730.273684 581.12 719.629474 591.629474 709.12 602.273684 692.143158 602.273684 681.633684 591.629474L512 422.130526 342.366316 591.629474C331.856842 602.273684 314.88 602.273684 304.370526 591.629474 293.726316 581.12 293.726316 564.143158 304.370526 553.633684L473.869474 384 304.370526 214.366316C293.726316 203.856842 293.726316 186.88 304.370526 176.370526 309.625263 171.115789 316.496842 168.421053 323.368421 168.421053 330.24 168.421053 337.111579 171.115789 342.366316 176.370526L512 345.869474 681.633684 176.370526C686.888421 171.115789 693.76 168.421053 700.631579 168.421053 707.503158 168.421053 714.374737 171.115789 719.629474 176.370526 730.273684 186.88 730.273684 203.856842 719.629474 214.366316L550.130526 384Z"  horiz-adv-x="1024" />

    
    <glyph glyph-name="down" unicode="&#58940;" d="M904 564c0 8.189-3.124 16.379-9.372 22.628-12.497 12.496-32.759 12.496-45.256 0L512 249.255 174.628 586.6279999999999c-12.497 12.496-32.758 12.496-45.255 0-12.497-12.498-12.497-32.758 0-45.256l360-360c12.497-12.496 32.758-12.496 45.255 0l360 360C900.876 547.621 904 555.8109999999999 904 564z"  horiz-adv-x="1024" />

    
    <glyph glyph-name="xiaoxi" unicode="&#58884;" d="M362.496 358.4h212.992c17.408 0 31.744 14.336 31.744 31.744 0 17.92-13.824 31.744-31.744 31.744h-212.992c-17.92 0-31.744-13.824-31.744-31.744s14.336-31.744 31.744-31.744zM510.976 825.344c-240.64 0-436.736-169.984-436.736-378.88 0-101.888 46.08-197.632 130.048-269.824 13.824-11.264 33.28-9.728 44.544 3.584 11.264 13.824 9.728 33.28-3.584 44.544-69.632 59.392-107.52 138.24-107.52 221.184 0 174.08 167.424 315.904 373.76 315.904s373.76-141.824 373.76-315.904-167.424-315.904-373.76-315.904c-8.704 0-17.408-3.584-23.04-10.24-4.608-5.12-8.192-8.704-10.752-11.776-2.56-2.56-4.096-4.608-5.632-6.144-1.024-1.024-2.048-2.56-3.072-3.584-0.512-1.024-1.536-1.536-2.048-2.048l-2.56-2.56c-7.68-7.68-15.36-14.336-31.232-28.672-21.504-15.872-50.688-29.696-83.456-38.912 25.088 39.424 32.768 74.752 23.04 110.592-2.56 8.192-7.68 14.848-14.336 18.432-7.168 5.12-16.384 6.144-24.064 3.584-8.192-2.56-14.848-7.68-18.432-14.336-5.12-7.168-6.144-16.384-3.584-24.064 5.632-20.48-2.048-44.032-24.576-74.24-3.584-4.608-7.68-9.728-11.776-14.848-1.024-1.024-3.072-2.56-4.096-4.608-5.12-5.632-6.656-7.68-7.68-9.216-3.072-3.584-5.632-6.656-7.68-9.728l-1.536-2.56c-3.072-4.096-4.096-7.68-5.632-12.288-3.072-11.776 0.512-24.064 9.728-32.768 6.144-5.12 13.824-7.68 20.992-7.68 54.272 0 134.656 19.968 193.024 65.536 18.944 16.896 27.136 24.064 35.328 32.768l3.072 3.072c2.56 2.56 4.096 4.608 6.656 7.168 1.024 1.024 2.048 2.56 3.584 4.096l3.072 3.584c112.128 3.072 217.6 43.008 296.96 112.64 80.896 71.168 125.44 165.376 125.44 266.24 0 208.384-195.584 377.856-436.224 377.856zM362.496 486.4h298.496c17.408 0 31.744 14.336 31.744 31.744 0 17.92-13.824 31.744-31.744 31.744h-298.496c-17.92 0-31.744-13.824-31.744-31.744s14.336-31.744 31.744-31.744z"  horiz-adv-x="1024" />

    
    <glyph glyph-name="msg" unicode="&#58883;" d="M423.424 803.84C284.16 778.752 163.84 695.808 105.472 583.6800000000001c-31.232-59.392-41.472-102.4-40.96-168.96 1.024-102.912 32.768-175.104 112.64-255.488l48.128-47.616 1.024-96.768 1.536-96.768 91.648 54.784 91.648 55.296h92.672c86.016 0.512 95.744 1.536 138.752 14.336 92.672 28.672 148.992 62.464 209.92 127.488 41.984 44.544 65.024 81.408 82.432 131.584 62.464 179.712-23.04 367.104-209.92 458.752-69.12 34.304-114.176 44.544-202.752 46.592-40.96 0.512-85.504-0.512-98.816-3.072z m193.536-68.608c16.896-4.608 52.224-18.944 78.848-31.744 39.424-19.456 56.32-31.744 90.112-65.536 70.656-70.144 96.256-129.536 96.256-220.672s-25.6-150.528-95.744-220.16c-46.08-45.568-95.232-74.752-161.792-95.232-32.256-10.24-49.664-12.288-107.52-12.288-37.888 0-76.288 1.536-85.504 3.584-13.824 3.072-24.064-1.024-79.36-34.304L289.28 20.480000000000018l-1.536 66.56-1.536 66.048-16.896 10.752c-24.576 14.848-77.312 72.192-95.232 103.936-28.672 50.176-38.4 87.04-38.4 149.504 0 58.88 6.656 87.04 30.72 135.68 46.08 91.648 143.872 162.816 258.56 186.88 42.496 9.216 149.504 6.656 192-4.608zM263.68 471.552c-23.04-10.24-33.28-27.136-33.28-54.784 0-26.112 27.136-53.248 53.248-53.248 26.624 0 46.08 11.776 56.832 34.304 8.192 16.896 8.192 20.992 2.048 39.424-12.8 35.328-45.056 49.664-78.848 34.304zM467.456 458.24c-16.896-16.896-17.92-19.968-15.36-41.984 6.656-59.904 86.528-73.216 109.568-18.432 16.384 40.448-9.216 78.336-53.248 78.336-19.456 0-25.6-2.56-40.96-17.92zM698.368 466.944c-15.36-12.288-22.528-28.16-22.528-49.664 0-26.624 27.136-53.76 53.248-53.76 26.624 0 46.08 11.776 56.832 33.792 7.168 15.872 7.68 22.016 3.072 38.4-8.192 27.136-27.136 40.448-56.32 40.448-14.336 0-27.648-3.584-34.304-9.216z"  horiz-adv-x="1024" />

    
    <glyph glyph-name="order" unicode="&#58899;" d="M784.6-31.100000000000023H233.3c-35.8 0-64.9 29-64.9 64.9V649.9c0 35.8 29 64.9 64.9 64.9h51l6.9-48.6h-25.5c-35.8 0-48.6-12.8-48.6-48.6v-551.3c0-35.8 12.8-48.6 48.6-48.6h486.4c35.8 0 48.6 12.8 48.6 48.6V617.5c0 35.8-12.8 48.6-48.6 48.6h-25.5l6.9 48.6h51c35.8 0 64.9-29 64.9-64.9v-616.2c0.1-35.6-28.9-64.7-64.8-64.7zM671.1 163.5H346.9c-9 0-16.2 7.3-16.2 16.2v16.2c0 9 7.3 16.2 16.2 16.2h324.3c9 0 16.2-7.3 16.2-16.2v-16.2c0-8.9-7.3-16.2-16.3-16.2z m0 145.9H346.9c-9 0-16.2 7.3-16.2 16.2v16.2c0 9 7.3 16.2 16.2 16.2h324.3c9 0 16.2-7.3 16.2-16.2v-16.2c0-8.9-7.3-16.2-16.3-16.2z m0 162.2H346.9c-9 0-16.2 7.3-16.2 16.2V504c0 9 7.3 16.2 16.2 16.2h324.3c9 0 16.2-7.3 16.2-16.2v-16.2c0-9-7.3-16.2-16.3-16.2z m-25.4 194.6H372.3l-6.9 48.6h46.3v8.1c0 49.3 39.9 73 89.2 73h16.2c49.3 0 89.2-23.7 89.2-73v-8.1h46.3l-6.9-48.6z m-88.1 56.7c0 22.4-18.1 24.3-40.5 24.3h-16.2c-22.4 0-40.5-1.9-40.5-24.3v-8.1h97.3v8.1z"  horiz-adv-x="1024" />

    
    <glyph glyph-name="nv_nor" unicode="&#58893;" d="M366.592 323.463529C265.848471 464.624941 278.829176 661.985882 405.504 788.630588c141.161412 141.131294 369.995294 141.131294 511.126588 0s141.131294-369.965176 0-511.09647c-126.674824-126.704941-324.005647-139.685647-465.167059-38.942118a61.048471 61.048471 0 0 0-3.343058-3.674353l-63.909647-63.879529 170.375529-170.37553a60.235294 60.235294 0 0 0-85.172706-85.172706L299.038118 85.835294l-106.496-106.496a60.235294 60.235294 0 0 0-85.172706 85.172706l106.496 106.496-170.37553 170.375529a60.235294 60.235294 0 0 0 85.172706 85.172706l170.37553-170.375529 63.879529 63.909647c1.204706 1.174588 2.409412 2.288941 3.674353 3.343059z m124.084706 39.243295A240.941176 240.941176 0 1 1 831.488 703.457882a240.941176 240.941176 0 0 1-340.751059-340.751058z"  horiz-adv-x="1024" />

    
    <glyph glyph-name="collapse" unicode="&#58910;" d="M990.258924 447.056239l-434.78084-360.842062-434.78084 360.842062a51.02817 51.02817 0 0 1-74.771891-9.789077 59.3593 59.3593 0 0 1 9.268382-79.770569l466.230856-386.876843c9.372521-7.810434 20.827825-11.975999 32.699684-11.975999 0.416556 0 0.833113 0.312417 1.353809 0.312417l1.353809-0.208278c11.87186 0 23.431303 4.165565 32.699684 11.975999l466.230856 386.876843a59.463439 59.463439 0 0 1 9.268382 79.770569 51.02817 51.02817 0 0 1-74.771891 9.684938z m-468.834333-143.607851c9.372521-7.706295 20.827825-11.87186 32.699684-11.87186 0.416556 0 0.833113 0.312417 1.353809 0.312417s0.833113-0.312417 1.353809-0.312417c11.87186 0 23.431303 4.165565 32.699684 11.87186l466.230856 386.980982a59.3593 59.3593 0 0 1 9.268382 79.66643 51.13231 51.13231 0 0 1-74.771891 9.893217l-434.78084-360.737924-434.78084 360.737924c-23.223025 19.369877-56.651683 14.891895-74.771891-9.893217s-13.954643-60.400692 9.268382-79.66643l466.230856-386.980982z"  horiz-adv-x="1110" />

    
    <glyph glyph-name="xihuan6" unicode="&#58887;" d="M931.84 725.33333333c-52.906667 53.76-122.88 83.626667-197.12 83.626667-73.386667 0-143.36-29.013333-195.413333-81.066667l-26.453334-27.306667-27.306666 27.306667c-52.053333 52.053333-121.173333 81.066667-195.413334 81.066667s-143.36-29.013333-195.413333-81.066667c-52.053333-52.906667-80.213333-122.026667-80.213333-196.266667S42.666667 389.12000033 94.72 336.21333332999995l344.746667-344.746667c19.626667-19.626667 46.08-29.866667 72.533333-29.866666 26.453333 0 52.053333 10.24 72.533333 29.866666l343.04 343.04c107.52 107.52 110.08 282.453333 4.266667 390.826667z m-64.853333-353.28L546.133333 50.34666632999995c-18.773333-18.773333-48.64-18.773333-67.413333 0L156.16 373.76000033C116.053333 413.01333333 93.866667 465.92000033 93.866667 522.2400003299999s22.186667 109.226667 61.44 148.48c40.106667 40.106667 92.16 61.44 148.48 61.44s109.226667-22.186667 148.48-61.44l25.6-25.6-38.4-38.4c-9.386667-9.386667-9.386667-24.746667 0-34.133334 4.266667-4.266667 11.093333-6.826667 17.066666-6.826666s11.946667 2.56 17.066667 6.826666L571.733333 671.57333333c40.106667 40.106667 92.16 61.44 148.48 61.44 57.173333 0 110.933333-22.186667 150.186667-63.146667 81.066667-82.773333 79.36-215.893333-3.413333-297.813333zM878.08 510.29333333c-2.56 45.226667-22.186667 87.893333-54.613333 120.32-23.04 23.04-51.2 39.253333-81.92 47.786667-13.653333 3.413333-27.306667-4.266667-31.573334-17.92-3.413333-13.653333 4.266667-27.306667 17.92-31.573334 22.186667-5.973333 42.666667-17.92 58.88-34.986666 23.04-23.04 37.546667-54.613333 39.253334-87.04 0.853333-13.653333 11.946667-23.893333 25.6-23.893334h1.706666c14.506667 0.853333 25.6 13.653333 24.746667 27.306667z"  horiz-adv-x="1024" />

    
    <glyph glyph-name="suo" unicode="&#58908;" d="M800 480V608A288 288 0 0 1 224 608v-128a96 96 0 0 1-96-96v-224a288 288 0 0 1 288-288h192a288 288 0 0 1 288 288v224a96 96 0 0 1-96 96zM288 608a224 224 0 0 0 448 0v-128h-64V608A160 160 0 0 1 352 608v-128H288z m352 0v-128H384V608a128 128 0 0 0 256 0z m192-320v-128a224 224 0 0 0-224-224H416a224 224 0 0 0-224 224v224a32 32 0 0 0 32 32h576a32 32 0 0 0 32-32zM512 288a64 64 0 0 1-64-64 320 320 0 0 1 21.44-85.44c8.64-23.68 19.52-42.56 42.56-42.56s33.92 18.56 42.56 42.24A317.76 317.76 0 0 1 576 224a64 64 0 0 1-64 64z"  horiz-adv-x="1024" />

    
    <glyph glyph-name="ziyuan" unicode="&#58890;" d="M28.818454 591.75271A31.41684 31.41684 0 0 1 70.865052 604.980854c62.361246 118.10842 249.917416 205.744867 466.528258 215.19354a755.893887 755.893887 0 0 0 326.215456-52.912572 212.595156 212.595156 0 0 1 35.432526-422.828143h9.448673a212.595156 212.595156 0 0 1 203.382699 222.04383c0 6.614072 0 12.991926-1.889734 19.605997v5.669204c0 1.889735-1.653518 9.448674-2.834602 14.173011l-1.181085 4.960554q-2.125952 8.503806-4.960553 17.007612c-23.621684 69.211534-82.20346 130.627912-169.839908 176.926413A787.78316 787.78316 0 0 1 535.031142 883.244291C296.688351 872.378316 87.872664 772.69481 15.354095 634.271742a31.41684 31.41684 0 0 1 13.464359-42.519032zM899.277509 707.026528a149.761476 149.761476 0 0 0 144.564706-111.494348v-3.543253c0-3.070819 1.417301-6.377855 1.889734-9.68489s0-2.834602 0-4.48812 0-9.448674 1.417301-14.17301A149.761476 149.761476 0 1 0 892.42722 707.026528zM1070.534717 163.727797c-62.361246-118.10842-249.917416-205.744867-466.528258-215.193541a758.728489 758.728489 0 0 0-324.089504 53.385006 212.595156 212.595156 0 1 1-194.170242 354.325259 212.595156 212.595156 0 0 1-55.747174-153.068512c0-6.614072 0-12.991926 1.889734-19.605997v-4.724337q1.181084-7.795156 3.070819-15.590312v-3.070819C75.825606-1.6239910000000464 292.908881-116.18915800000002 563.849596-116.18915800000002h42.991465c238.342791 10.393541 447.158478 110.549481 519.677047 248.972549A31.653057 31.653057 0 1 1 1070.534717 163.727797zM141.730104 99.94925a149.052826 149.052826 0 0 0-38.975779 57.400692l-1.653518 4.251903c0 1.889735 0 3.779469-1.653517 5.669205s-1.653518 5.669204-2.362169 8.503806 0 3.070819 0 4.724337S94.486736 187.34948099999997 94.486736 189.71164899999997s0 9.448674-1.417301 14.173011A149.761476 149.761476 0 0 0 236.21684 360.26020800000003h6.614071A149.761476 149.761476 0 1 0 141.730104 99.94925z"  horiz-adv-x="1141" />

    
    <glyph glyph-name="changephoto" unicode="&#58891;" d="M114.119111 397.425778c0 0.398222-0.113778 0.796444-0.113778 1.194666h0.085334c7.793778 213.333333 182.698667 384 397.909333 384 87.125333 0 167.196444-28.586667 232.704-76.060444l-61.553778-59.904 0.341334-0.369778a43.463111 43.463111 0 0 1-10.581334-28.245333c0-24.234667 19.655111-43.861333 43.889778-43.861333h36.892444l0.028445-0.028445H921.6c24.234667 0 43.889778 19.626667 43.889778 43.889778v204.8A43.889778 43.889778 0 0 1 880.896 839.111111l-54.186667-52.679111C739.953778 854.670222 631.04 896 512 896 244.309333 896 25.656889 690.204444 3.043556 428.373333a43.292444 43.292444 0 0 1-3.043556-15.132444c0-1.877333 0.625778-3.555556 1.052444-5.319111-0.625778-3.413333-1.052444-6.883556-1.052444-10.496a57.059556 57.059556 0 1 1 114.119111 0zM1024 390.115556c0 2.133333-0.398222 4.152889-0.625778 6.229333 0 0.739556-0.085333 1.479111-0.113778 2.275555h-0.113777a56.888889 56.888889 0 0 1-56.206223 48.554667 56.945778 56.945778 0 0 1-56.234666-48.583111h-0.796445c0.056889-1.820444 0.142222-3.612444 0.284445-5.461333-0.056889-1.024-0.312889-1.991111-0.312889-3.043556 0-2.446222 0.426667-4.778667 0.682667-7.139555-0.568889-219.704889-178.716444-397.596444-398.563556-397.596445-87.324444 0-167.452444 28.728889-232.96 76.430222l57.088 56.661334c8.931556 7.765333 14.961778 18.631111 14.961778 31.488 0 24.234667-19.655111 43.889778-43.889778 43.889777H270.620444l-1.109333 1.137778-1.109333-1.137778H102.4c-24.234667 0-43.889778-19.626667-43.889778-43.889777v-204.8c0-24.206222 19.655111-43.861333 43.889778-43.861334 3.185778 0 5.973333 1.137778 9.016889 1.792l0.113778-1.792 2.275555 2.275556a42.666667 42.666667 0 0 1 26.083556 20.309333l58.311111 57.799111C284.728889-86.471111 393.159111-128 512-128c282.737778 0 511.971556 229.205333 512 511.943111V384c0 1.365333-0.142222 2.730667-0.199111 4.067556 0 0.711111 0.199111 1.336889 0.199111 2.048z"  horiz-adv-x="1024" />

    
    <glyph glyph-name="nan" unicode="&#58922;" d="M388.783612-127.998635A387.75415 387.75415 0 1 0 602.457994 582.656418l7.509323-4.778661 180.906425 180.906426H637.956613a68.266576 68.266576 0 1 0 0 136.533151H957.444187a68.266576 68.266576 0 0 0 68.266576-68.266575v-318.804909a68.266576 68.266576 0 0 0-136.533152 0V661.845646l-181.589091-180.906426 4.77866-6.826657A387.75415 387.75415 0 0 0 388.783612-127.998635z m0 638.292483a250.538333 250.538333 0 1 1 176.810431-73.045236 249.173001 249.173001 0 0 1-176.810431 72.36257z"  horiz-adv-x="1025" />

    
    <glyph glyph-name="ziyuan1" unicode="&#58900;" d="M729.331968 895.97254H294.625678A106.116739 106.116739 0 0 1 186.181818 793.579196v-819.146756A106.116739 106.116739 0 0 1 294.625678-127.960904h434.240866A106.116739 106.116739 0 0 1 837.775828-25.56756V793.579196A106.116739 106.116739 0 0 1 729.331968 895.97254zM390.037658 826.62432h244.347754a13.03188 13.03188 0 0 0 13.497305-13.03188 13.03188 13.03188 0 0 0-13.497305-10.704759H390.037658a13.03188 13.03188 0 0 0-13.497304 13.031881 13.03188 13.03188 0 0 0 13.497304 10.704758z m112.632679-921.5401a38.630216 38.630216 0 1 0 40.957338 38.630217 39.561065 39.561065 0 0 0-40.957338-38.630217z m274.134909 113.098104H247.152401V775.427648h529.652845z"  horiz-adv-x="1024" />

    
    <glyph glyph-name="Stars" unicode="&#59008;" d="M565.723429 824.758857l100.608-212.955428a60.196571 60.196571 0 0 1 45.056-34.194286l224.987428-34.157714a63.232 63.232 0 0 0 33.170286-106.569143l-162.816-165.778286a64.256 64.256 0 0 1-17.188572-55.296l38.4-234.057143a60.416 60.416 0 0 0-86.784-65.828571l-201.142857 110.518857a57.490286 57.490286 0 0 1-55.661714 0l-201.142857-110.518857a60.416 60.416 0 0 0-86.784 65.828571l38.436571 234.057143a64.146286 64.146286 0 0 1-17.225143 55.296l-162.816 165.778286a63.232 63.232 0 0 0 33.170286 106.569143l224.987429 34.157714a60.123429 60.123429 0 0 1 45.056 34.194286l100.608 212.955428a58.733714 58.733714 0 0 0 107.081143 0z"  horiz-adv-x="1024" />

    
    <glyph glyph-name="taocan-copy" unicode="&#58888;" d="M931.2 419.2l-80 41.6h-6.4l-57.6-32c-3.2 0-3.2-3.2-3.2-6.4s3.2-6.4 3.2-6.4l54.4-28.8L512 211.20000000000005 185.6 384l57.6 32c3.2 0 3.2 3.2 3.2 6.4s0 6.4-3.2 6.4l-57.6 32h-6.4L96 419.2c-12.8-6.4-19.2-19.2-19.2-32s6.4-25.6 19.2-32l400-217.6c6.4-3.2 9.6-3.2 16-3.2s12.8 0 16 3.2l403.2 217.6c12.8 6.4 19.2 19.2 19.2 32-3.2 12.8-9.6 25.6-19.2 32zM92.8 553.6l400-217.6c6.4-3.2 9.6-3.2 16-3.2s12.8 0 16 3.2L928 553.6c12.8 6.4 19.2 19.2 19.2 32s-6.4 25.6-19.2 32L531.2 819.2c-9.6 6.4-22.4 6.4-32 0L96 617.6c-12.8-6.4-19.2-19.2-19.2-32-3.2-12.8 6.4-25.6 16-32zM928 230.39999999999998l-76.8 38.4h-6.4l-57.6-32c-3.2 0-3.2-3.2-3.2-6.4s3.2-6.4 3.2-6.4l48-25.6-329.6-176-320 172.8 51.2 22.4c3.2 0 3.2 3.2 3.2 6.4s0 6.4-3.2 6.4l-57.6 32h-6.4l-80-35.2c-12.8-6.4-19.2-19.2-19.2-32s6.4-25.6 19.2-32l400-217.6c6.4-3.2 9.6-3.2 16-3.2s12.8 0 16 3.2L928 166.39999999999998s3.2 0 3.2 3.2c9.6 6.4 16 19.2 16 28.8 0 12.8-6.4 25.6-19.2 32z"  horiz-adv-x="1024" />

    
    <glyph glyph-name="copy" unicode="&#58907;" d="M791.9 832.3H120v-783.6h55.8V776.1h616.1zM231.8 720.3v-783.8H904V720.3H231.8z m616.1-727.6h-560V664.5h560v-671.8zM399.8 160.5h336v-55.9h-336zM399.8 272.3h336v-55.9h-336zM399.8 384.2h336v-55.9h-336z"  horiz-adv-x="1024" />

    
    <glyph glyph-name="location" unicode="&#58881;" d="M512.103132 575.879021a106.221743 106.221743 0 1 0-75.507022-31.354611A106.221743 106.221743 0 0 0 512.103132 575.879021m0 63.989002a170.850635 170.850635 0 1 1 120.939214-49.911422A169.570855 169.570855 0 0 1 512.103132 639.868023zM805.172761 771.685367a407.609942 407.609942 0 0 1-586.139257 0 431.285873 431.285873 0 0 1 0-599.576948L512.103132-128l293.069629 300.108419a431.285873 431.285873 0 0 1 0 599.576948z m-44.152411-557.344207l-248.917218-255.956007-248.917217 255.956007a365.377201 365.377201 0 0 0 0 508.712565 346.82039 346.82039 0 0 0 497.834435 0 365.377201 365.377201 0 0 0 0-508.712565z"  horiz-adv-x="1024" />

    
    <glyph glyph-name="fanhuidingbu" unicode="&#58889;" d="M51.2 896h921.6a51.2 51.2 0 0 0 51.2-51.2v-921.6a51.2 51.2 0 0 0-51.2-51.2H51.2a51.2 51.2 0 0 0-51.2 51.2V844.8a51.2 51.2 0 0 0 51.2 51.2z m460.8-384a33.024 33.024 0 0 1-22.8096-8.96l-198.144-188.288a29.568 29.568 0 0 1 0-43.3664c12.6208-11.9808 33.024-11.9808 45.6448 0L512 438.016l175.3088-166.6048c12.6208-11.9808 33.024-11.9808 45.6448 0a29.5936 29.5936 0 0 1 0 43.3664l-198.144 188.2624A33.0496 33.0496 0 0 1 512 512z"  horiz-adv-x="1024" />

    
    <glyph glyph-name="qitianicontongyi-" unicode="&#58892;" d="M885.6993 435.744783a394.152626 394.152626 0 0 1-94.170519 130.816061l-32.810543 29.827766a9.374441 9.374441 0 0 1-14.913883-3.834999l-14.913883-42.611094A240.752685 240.752685 0 0 0 679.035491 468.555326a7.243886 7.243886 0 0 0-4.68722-2.130555 6.391664 6.391664 0 0 0-4.687221 0 6.817775 6.817775 0 0 0-2.130554 5.539442 438.042053 438.042053 0 0 1-60.933866 229.24769A403.953178 403.953178 0 0 1 454.048911 865.690728L407.176707 894.666273a8.94833 8.94833 0 0 1-13.63555-8.096108l2.556665-55.820534A247.144349 247.144349 0 0 0 384.166716 733.170224 322.992098 322.992098 0 0 0 330.050626 638.999705a335.349315 335.349315 0 0 0-54.116091-50.281092 399.692068 399.692068 0 0 1-113.771622-137.633836 394.152626 394.152626 0 0 1-42.611095-175.131599 390.317627 390.317627 0 0 1 31.53221-154.252163 399.692068 399.692068 0 0 1 367.733747-241.604907 400.970401 400.970401 0 0 1 155.104385 31.106099 398.839846 398.839846 0 0 1 213.055473 210.498808 393.726515 393.726515 0 0 1-2.556665 314.043768z m-127.833284-394.152626A337.905981 337.905981 0 0 0 283.178421 42.444379a328.957651 328.957651 0 0 0-63.490531 380.943186 333.644871 333.644871 0 0 0 95.448852 114.623845 383.499852 383.499852 0 0 1 63.916643 62.212198 388.613184 388.613184 0 0 1 63.916642 110.788847 259.927678 259.927678 0 0 1 13.209439 50.281091l3.834998 24.288324 17.89666-18.748881a354.098197 354.098197 0 0 0 72.438861-92.892187 375.403744 375.403744 0 0 0 53.263869-195.158814 71.160528 71.160528 0 0 1 23.436102-57.098866 70.308306 70.308306 0 0 1 46.872204-17.89666h3.834998A69.882195 69.882195 0 0 1 725.055473 425.944231a361.342083 361.342083 0 0 1 37.497764 49.854981l9.800552 16.192216 11.504995-14.913883a328.957651 328.957651 0 0 0-26.418879-434.633166zM409.307262 247.829855H313.432299v77.126082h-27.697212v-182.801597h27.697212v81.813302h95.874963v-81.813302h27.697211v182.801597h-27.697211v-77.126082zM540.975544 328.364824a81.813302 81.813302 0 0 1-65.621085-27.2711 98.005518 98.005518 0 0 1-22.583881-67.751641 98.005518 98.005518 0 0 1 22.583881-67.32553 85.222189 85.222189 0 0 1 65.621085-27.2711 85.222189 85.222189 0 0 1 65.621086 26.844989 98.005518 98.005518 0 0 1 23.009991 67.751641 98.005518 98.005518 0 0 1-23.009991 68.177752 85.222189 85.222189 0 0 1-65.621086 26.844989z m44.74165-146.156055a55.394423 55.394423 0 0 0-44.74165-18.748881 55.820534 55.820534 0 0 0-45.16776 19.601103 77.978303 77.978303 0 0 0-15.339994 50.707203 78.404414 78.404414 0 0 0 15.339994 50.707203 54.542201 54.542201 0 0 0 45.16776 19.601103 54.542201 54.542201 0 0 0 44.74165-18.748881 79.256636 79.256636 0 0 0 15.766105-51.559425 77.552192 77.552192 0 0 0-15.766105-51.559425zM630.884954 301.093724h60.933866v-158.939384h27.697211v158.939384h60.933866v23.862213h-149.564943v-23.862213z"  horiz-adv-x="1024" />

    
    <glyph glyph-name="up" unicode="&#59282;" d="M538.112 537.088l-379.904-365.568c-13.824-13.824-36.352-13.824-50.176 0s-13.824 35.84 0 49.664l404.992 400.896c13.824 13.824 36.352 13.824 50.176 0l404.992-400.896c13.824-13.824 13.824-35.84 0-49.664s-36.352-13.824-50.176 0l-379.904 365.568z"  horiz-adv-x="1024" />

    
    <glyph glyph-name="dui1" unicode="&#58902;" d="M511.53-124.928c-280.803 0-509.212 228.409-509.212 509.212 0 280.776 228.41 509.213 509.213 509.213s509.212-228.437 509.212-509.213-228.409-509.212-509.212-509.212z m0 945.38c-240.497 0-436.138-195.67-436.138-436.14s195.64-436.166 436.139-436.166c240.469 0 436.138 195.698 436.138 436.167S752 820.452 511.531 820.452z m0 0M755.868 519.339a36.295 36.295 0 0 1-51.427-0.285l-265.16-268.06L321.92 371.598a36.352 36.352 0 1 1-52.139-50.745l143.247-147.2c0.056-0.113 0.199-0.113 0.284-0.227 0.057-0.057 0.085-0.228 0.17-0.285 2.305-2.275 5.12-3.64 7.823-5.177 1.422-0.768 2.531-2.048 4.01-2.645a36.437 36.437 0 0 1 27.364-0.057c1.422 0.598 2.503 1.764 3.84 2.475 2.73 1.536 5.575 2.901 7.908 5.177 0.057 0.085 0.113 0.227 0.227 0.284 0.057 0.114 0.17 0.17 0.285 0.228L756.18 467.854a36.466 36.466 0 0 1-0.313 51.485z m0 0"  horiz-adv-x="1024" />

    
    <glyph glyph-name="paiming" unicode="&#59025;" d="M855.552 388.608c-4.096 0-8.192 0.512-11.776 2.56-3.072 1.536-5.632 3.584-8.192 6.144-2.048 3.072-4.096 6.144-5.12 9.728-1.024 3.584-2.048 7.68-2.048 11.776h-29.184c0-8.704 1.024-16.896 3.584-23.552 2.56-6.656 6.656-12.8 11.264-17.408 5.12-4.608 10.752-8.192 17.92-10.752s14.848-3.584 23.04-3.584c7.168 0 14.336 1.024 20.992 3.072s12.8 5.12 17.92 9.728c5.12 4.096 9.216 9.216 12.288 15.872 3.072 6.144 4.608 13.312 4.608 21.504 0 8.704-2.56 16.384-7.168 22.528-4.608 6.144-11.776 10.752-19.456 12.288v0.512c7.168 2.048 12.288 5.632 15.872 11.776 3.584 5.632 5.12 12.288 5.12 19.456 0 6.656-1.536 12.8-4.608 17.92-3.072 5.12-7.168 9.728-11.776 13.312-5.12 3.584-10.24 6.656-16.384 8.192-5.632 2.048-11.776 2.56-17.92 2.56-7.68 0-14.848-1.024-20.992-3.584-12.288-5.12-22.016-14.848-26.624-27.648-2.56-6.656-4.096-14.336-4.096-21.504h29.184c0 7.68 1.536 14.336 5.632 19.456s9.728 7.68 17.408 7.68c5.632 0 10.752-1.536 14.848-5.12 4.096-3.584 6.656-8.704 6.656-14.848 0-3.584-1.024-7.68-3.072-10.24-2.048-2.56-4.608-4.608-8.192-6.144-3.072-1.536-6.656-2.048-10.24-2.56-3.584-0.512-7.168-0.512-10.752 0v-22.016c3.584 0 7.68 0 11.776-0.512 4.096 0 7.68-1.024 11.264-2.56 3.584-1.536 6.144-3.584 8.704-6.656 2.048-3.072 3.584-7.68 3.584-13.312 0-7.168-2.56-13.312-7.168-17.408-4.096-4.608-10.752-7.168-16.896-6.656M496.128 725.504h30.72V878.08h-24.576c-0.512-5.12-2.56-10.24-5.632-14.336-2.56-3.584-6.144-7.168-10.24-9.216-4.096-2.56-8.192-4.096-13.312-5.12-5.12-1.024-10.24-1.536-15.36-1.024V824.32h37.888l0.512-98.816M182.272 591.36c-3.072-3.072-6.656-5.632-10.24-8.192-3.584-2.048-7.168-4.608-10.752-7.168-6.144-4.096-12.288-8.704-18.432-13.312-5.632-4.608-10.752-9.216-15.36-14.336-4.608-5.12-7.68-11.264-10.24-17.408-2.56-6.656-3.584-14.336-3.584-23.04h110.592v26.624H153.088c3.584 5.12 8.192 9.728 12.8 13.824 5.12 4.096 9.728 7.68 14.848 10.752 5.12 3.584 10.24 6.656 15.36 10.24s9.728 7.168 13.824 11.776c4.096 4.096 7.168 9.216 9.728 14.848 2.56 5.632 3.584 12.288 3.584 19.968 0 7.168-1.536 13.824-4.096 19.968-2.56 5.632-6.656 10.752-11.264 14.848-4.608 4.096-10.24 7.168-16.384 9.216-6.144 2.048-12.8 3.072-19.456 3.072-9.216 0-16.896-1.536-24.064-4.608-6.656-3.072-12.8-7.168-17.408-13.312-4.608-5.632-8.192-12.288-10.24-19.456-2.56-7.68-3.072-15.36-3.072-24.064h29.184c0 4.096 0.512 8.192 1.024 12.288 1.024 4.096 2.048 7.68 4.096 11.264 2.048 3.584 4.608 6.144 7.68 8.192 3.584 2.048 7.168 3.072 11.264 3.072 6.656 0 11.776-2.048 16.384-6.144 4.096-4.096 6.144-9.728 6.144-17.408 0-4.608-1.024-8.704-3.072-12.288-2.048-3.072-4.608-6.656-7.68-9.216m777.728-288.256h-204.288v-412.672h205.312c34.816 0 62.976 28.672 62.976 63.488v284.672c0.512 35.328-28.16 64-64 64.512m-259.072 313.344c0 35.328-28.16 63.488-62.976 63.488H386.048c-34.816 0-62.976-28.672-62.976-63.488v-727.04h377.344v727.04M0 400.384v-446.976c0-34.816 28.16-63.488 62.976-63.488h205.824V464.384h-204.8C28.672 464.384 0 435.712 0 400.384"  horiz-adv-x="1024" />

    
    <glyph glyph-name="right" unicode="&#59016;" d="M610.269867 384l-248.9344 248.9344L409.6 681.198933 706.798933 384 409.6 86.80106699999999l-48.264533 48.264533z"  horiz-adv-x="1024" />

    
    <glyph glyph-name="xiangyou" unicode="&#59049;" d="M1012.672 384A500.672 500.672 0 1 1 11.328 384a500.672 500.672 0 1 1 1001.344 0z m-357.056-31.552H292.928a31.488 31.488 0 1 0 0 63.104h362.688L490.048 581.12a31.808 31.808 0 0 0 0.576 44.48 30.912 30.912 0 0 0 43.328 0l219.072-219.072a31.296 31.296 0 0 0 0-44.48l-219.072-219.072a31.808 31.808 0 0 0-44.48 0.512 30.912 30.912 0 0 0 0 43.392l166.144 165.568z"  horiz-adv-x="1024" />

    
    <glyph glyph-name="sheji" unicode="&#58895;" d="M835.484 506.73l-108.241 88.968-93.958 113.197L741.354 816.964l114.711-85.801 87.488-116.398-108.07-108.035zM335.51-3.74a19.755 19.755 0 0 0-14.007 5.816L130.076 193.503a19.824 19.824 0 0 0 0 28.015L706.317 797.793a67.457 67.457 0 0 0 47.255 19.893 59.989 59.989 0 0 0 42.78-17.449l131.885-131.885a59.92 59.92 0 0 0 17.415-45.293 66.975 66.975 0 0 0-19.859-44.742l-576.275-576.24a19.755 19.755 0 0 0-14.007-5.817zM172.204 207.545l163.41-163.411 562.13 562.233a27.533 27.533 0 0 1 8.26 18.275 20.65 20.65 0 0 1-5.85 15.695l-131.85 131.885a20.65 20.65 0 0 1-14.731 5.85 27.533 27.533 0 0 1-19.24-8.294z m0 0M106.467-41.392a19.824 19.824 0 0 0-3.201 39.373l229.01 37.583a19.824 19.824 0 1 0 6.435-39.097l-229.01-37.515a19.514 19.514 0 0 0-3.234-0.275z m0 0M106.467-41.392a19.824 19.824 0 0 0-3.201 39.373l229.01 37.583a19.824 19.824 0 1 0 6.435-39.097l-229.01-37.515a19.514 19.514 0 0 0-3.234-0.275z m0 0M106.501-41.392a20.03 20.03 0 0 0-3.235 0.275 19.824 19.824 0 0 0-16.348 22.75l37.583 229.01a19.828 19.828 0 0 0 39.132-6.436l-37.583-229.01a19.824 19.824 0 0 0-19.549-16.623z m0 0M106.501-41.392a20.03 20.03 0 0 0-3.235 0.275 19.824 19.824 0 0 0-16.348 22.75l37.583 229.01a19.828 19.828 0 0 0 39.132-6.436l-37.583-229.01a19.824 19.824 0 0 0-19.549-16.623z m726.505 535.32a19.755 19.755 0 0 0-14.008 5.816l-191.426 191.46a19.872 19.872 0 0 0 28.187 28.016l191.426-191.427a19.824 19.824 0 0 0-14.007-33.831z m-166.922-481.63a19.824 19.824 0 0 0-14.008 33.832L757.29 151.342a19.824 19.824 0 1 0 28.015-28.015L680.023 18.046a19.755 19.755 0 0 0-14.008-5.817z m-71.243 71.243a19.824 19.824 0 0 0-14.007 33.832l105.28 105.28a19.824 19.824 0 1 0 28.05-28.014L608.85 89.392a19.755 19.755 0 0 0-14.008-5.816z m0 0M761.797-65.966a61.537 61.537 0 0 0-43.812 18.138L494.792 175.434a19.824 19.824 0 0 0 0 28.015l197.793 197.76a19.824 19.824 0 0 0 28.05 0l223.193-223.194a61.95 61.95 0 0 0 0-87.59L805.472-47.829a61.537 61.537 0 0 0-43.812-18.138zM536.85 189.407l209.185-209.185a22.302 22.302 0 0 1 31.526 0l138.253 138.252a22.268 22.268 0 0 1 0 31.526L706.627 359.185zM160.088 518.294a19.824 19.824 0 0 0-14.008 33.832L251.361 657.27a19.824 19.824 0 0 0 28.016-28.016L174.096 524.076a19.755 19.755 0 0 0-14.008-5.816z m71.243-71.242a19.824 19.824 0 0 0-14.008 33.831l105.281 105.281a19.824 19.824 0 0 0 28.016-28.015L245.373 452.834a19.755 19.755 0 0 0-14.008-5.817z m0 0M317.373 361.01a19.79 19.79 0 0 0-14.008 5.816L80.138 590.054a61.95 61.95 0 0 0 0 87.59L218.39 815.897a61.95 61.95 0 0 0 87.59 0l223.194-223.228a19.824 19.824 0 0 0 0-28.015L331.38 366.86a19.824 19.824 0 0 0-14.007-5.816z m-55.067 433.342a22.164 22.164 0 0 1-15.763-6.54L108.291 649.56a22.302 22.302 0 0 1 0-31.526L317.476 408.85l169.778 169.778L278.07 787.813a22.13 22.13 0 0 1-15.763 6.539z m0 0"  horiz-adv-x="1024" />

    
    <glyph glyph-name="icon-test" unicode="&#58894;" d="M1019.25696307 736.08158201c0 44.8393307-34.79845091 81.20880333-77.64823366 81.20880332H82.3838189c-42.89076702 0-77.64947642-36.36947263-77.64947641-81.20880332v-595.56889912c0-44.82567009 34.7587094-81.19762702 77.64947641-81.19762579h325.75423193l103.85760195-108.60668519 103.8240718 108.60668519h325.79397222c42.84605812 0 77.65071796 36.37195693 77.65071795 81.19762579v97.05811938h-0.33034877c-0.88796911 14.11932828-11.82923829 25.34748009-25.55363691 25.34748009-13.72936723 0-24.66815212-11.2331192-25.55115384-25.34748009h-0.33034998v-69.97444259c0-29.92269388-23.16419314-54.15617483-51.76548952-54.15617483H589.93325337l-77.93760059-81.49320287-77.93884213 81.49320287H108.24296767c-28.58639299 0-51.74313445 24.2347237-51.74313567 54.15617483V709.00163106c0 29.84693669 23.15674146 54.14872436 51.74313567 54.14872436h807.49171083c28.60005361 0 51.76052212-24.30178767 51.7605209-54.14872436v-257.18315175h0.53899113c-0.08196611-0.90659833-0.53899113-1.77469667-0.53899113-2.80672726 0-14.94147618 11.56098367-27.03772513 25.8864712-27.03772513 14.27953588 0 25.88398691 12.09624895 25.88398691 27.03772513 0 1.03203058-0.47316992 1.89888739-0.53402373 2.80672726h0.53402373V736.08158201h-0.00869444zM767.48980102 372.06519899H278.92551711c-13.00284726 0-23.52683296-11.47777601-23.52683176-25.63932888 0-14.11932828 10.5239857-25.5921369 23.52683176-25.59213689h488.56428391c12.96310576 0 23.49205883 11.47280862 23.49205884 25.59213689-0.00372585 14.16031133-10.53392046 25.63932889-23.49205884 25.63932888z m0 173.09186518H278.92551711c-13.00284726 0-23.52683296-11.43803449-23.52683176-25.63808734 0-14.11436089 10.5239857-25.59337844 23.52683176-25.59337843h488.56428391c12.96310576 0 23.49205883 11.47901755 23.49205884 25.59337843-0.00372585 14.20005285-10.53392046 25.63808734-23.49205884 25.63808734z"  horiz-adv-x="1024" />

    
    <glyph glyph-name="dui" unicode="&#58996;" d="M602.763636 141.684364l727.784728 727.04a93.090909 93.090909 0 0 0 131.630545-131.630546l-789.876364-789.224727a92.625455 92.625455 0 0 0-49.803636-25.879273 93.090909 93.090909 0 0 0-86.202182 25.041455L87.784727 380.834909A93.090909 93.090909 0 1 0 219.415273 512.465455l383.348363-370.781091z"  horiz-adv-x="1489" />

    
    <glyph glyph-name="fanhui" unicode="&#58945;" d="M736-64c-9 0-18.1 3.2-25 9.6L263 360.8c-13.8 12.8-13.8 33.6 0 46.4L711 822.4c13.8 12.8 36.2 12.8 50 0 13.8-12.8 13.8-33.6 0-46.4L338 384l423-392c13.8-12.8 13.8-33.6 0-46.4-6.9-6.4-16-9.6-25-9.6z"  horiz-adv-x="1024" />

    
    <glyph glyph-name="view" unicode="&#59714;" d="M610.944 434.032C648.384 359.392 593.6 272 510.88 272c-61.76 0-111.44 50.24-111.44 112S448 496 512 496v80c-112 0-192.56-86.128-192.56-192s85.568-192 191.44-192 192 86.128 192 192c0 30.848-7.472 59.92-20.464 85.76l-71.472-35.728zM510.88 720c-240.64 0-448-225.376-448-336 0-110.64 207.36-336 448-336s448.016 225.36 448.016 336c0 110.624-207.376 336-448 336z m0-592c-207.104 0-368 204.192-368 256 0 51.808 160.896 256 368 256s368-204.192 368-256c0-51.808-160.896-256-368-256z"  horiz-adv-x="1024" />

    
    <glyph glyph-name="book" unicode="&#59754;" d="M984 762.672C850.672 840 669.152 823.664 512 662.688v-1.36C408 770.672 256 832 54.912 778.688L0 70c256 47.328 428.976 4.432 512-107.328v0.016c146.672 103.984 360.112 152.016 512 108.656L984 762.672zM74.88 148.656L74.672 754.672C153.04 795.552 440 741.328 496 581.328l-34.832-528.24c-157.328 130.688-301.056 110.576-386.288 95.568z m460.528-95.184l-2.08 591.872c79.936 101.072 285.488 151.024 401.792 60.048l66.208-602.72C886.656 140 656 133.328 535.408 53.472z"  horiz-adv-x="1024" />

    
    <glyph glyph-name="dingzhi" unicode="&#58896;" d="M614.912 398.848H342.656c-11.136 0-20.224 9.088-20.224 20.224 0 11.136 9.088 20.224 20.224 20.224h272.256c11.136 0 20.224-9.088 20.224-20.224 0-11.264-9.088-20.224-20.224-20.224zM695.68 277.76H342.656c-11.136 0-20.224 9.088-20.224 20.224 0 11.136 9.088 20.224 20.224 20.224h353.024c11.136 0 20.224-9.088 20.224-20.224-0.128-11.136-9.088-20.224-20.224-20.224zM594.816 156.8h-252.16c-11.136 0-20.224 9.088-20.224 20.224S331.52 197.12 342.656 197.12h252.16c11.136 0 20.224-9.088 20.224-20.224s-9.088-20.096-20.224-20.096zM775.296 619.904c-25.472 25.472-59.648 40.192-95.616 41.344-11.904 29.568-40.96 50.432-74.88 50.432h-22.656c-9.088 35.712-41.344 60.672-78.208 60.672-36.864 0-68.992-24.96-78.208-60.672H403.2c-33.92 0-62.848-20.864-74.88-50.56-35.968-1.024-70.144-15.744-95.616-41.344-26.496-26.496-41.344-62.336-41.344-99.84v-383.232c0-77.952 63.232-141.184 141.184-141.184h342.912c37.504 0 73.344 14.848 99.84 41.344 25.088 25.088 39.808 58.624 41.216 93.952 0.128 0.768 0.128 1.536 0.128 2.304V137.856c0 11.136-9.088 20.224-20.224 20.224-11.136 0-20.224-9.088-20.224-20.224v-1.152c0-55.68-45.184-100.736-100.864-100.736H332.544c-55.68 0-100.864 45.184-100.864 100.864V520.064c0 26.752 10.624 52.352 29.568 71.296 16.64 16.64 38.656 26.88 61.952 29.056 5.12-39.552 39.04-70.144 80-70.144h201.728c40.96 0 74.88 30.592 80 70.144 23.296-2.176 45.184-12.416 61.952-29.056 18.944-18.944 29.568-44.544 29.568-71.296v-293.888c0-11.136 9.088-20.224 20.224-20.224 11.136 0 20.224 9.088 20.224 20.224V520.064c-0.256 37.504-15.104 73.344-41.6 99.84z m-170.496-29.184H403.2c-22.272 0-40.32 18.048-40.32 40.32s18.048 40.32 40.32 40.32h40.32c5.376 0 10.496 2.176 14.208 5.888 3.84 3.84 5.888 8.96 5.888 14.208 0 22.272 18.048 40.32 40.32 40.32s40.32-18.048 40.32-40.32c0-5.376 2.176-10.496 5.888-14.208 3.84-3.84 8.96-5.888 14.208-5.888h40.32c22.272 0 40.32-18.048 40.32-40.32 0.256-22.272-17.792-40.32-40.192-40.32z"  horiz-adv-x="1024" />

    
    <glyph glyph-name="credentials_icon" unicode="&#58886;" d="M1260.31354387 896.00058795h-1102.77538313c-86.96949757-0.08837381-157.44761315-70.56787026-157.53598699-157.52908279v-708.93472527c0.08837381-86.96949757 70.56787026-157.44761315 157.5304636-157.53598698h1102.7836682c86.96949757 0.08837381 157.44899401 70.56787026 157.53598698 157.52908277v708.93472527c-0.08837381 86.96949757-70.56787026 157.44761315-157.52908277 157.535987zM1339.07532357 29.535399050000024c-0.05661447-43.48405836-35.29152976-78.71897363-78.77006474-78.77696896h-1102.76709809c-43.478535 0.06489952-78.70516524 35.29705312-78.76039889 78.77006475v708.93058276c0.05523363 43.48405836 35.29152976 78.71897363 78.77006476 78.77558811h1102.7670981c43.478535-0.06489952 78.70516524-35.29705312 78.76177972-78.77006476zM1111.4809966 352.80680581c42.53542071 36.15455526 70.05695915 89.32383116 70.05695914 149.34069669 0 108.57965644-88.34481503 196.9258523-196.92585228 196.92585231s-196.90928221-88.34619585-196.9092822-196.92585231c0-60.01686553 27.56296366-113.18614142 70.09976521-149.34069669-88.28958139-46.00961621-148.87259165-138.25392573-148.87259166-244.50686538 0-21.75238548 17.636099-39.38710363 39.38710365-39.38710363 21.75238548 0 39.38710363 17.636099 39.38710363 39.38710363 0 108.57965644 88.34619585 196.92447147 196.92447146 196.92447144s196.9258523-88.34481503 196.9258523-196.92447144c0 0 0 0 0 0 0-21.75238548 17.636099-39.38710363 39.38710362-39.38710363 21.75238548 0 39.38710363 17.636099 39.38710365 39.38710363 0 0 0 0 0 0-0.01242757 106.25293966-60.55539346 198.49862999-148.84773652 244.50686538zM866.46460095 502.14888334c0 65.25439477 52.89725025 118.14888334 118.15026419 118.14888335s118.14888334-52.89725025 118.14888335-118.14888335c0-65.25439477-52.89725025-118.14888334-118.14888335-118.14888334-65.22263542 0.07180373-118.07569878 52.92762875-118.14888334 118.14335998zM669.53598698 620.31295593h-472.61210346c-21.75238548 0-39.38710363-17.636099-39.38710363-39.38710363s17.636099-39.38710363 39.38710363-39.38710364h472.61210346c21.75238548 0 39.38710363 17.636099 39.38710363 39.38710364s-17.636099 39.38710363-39.38710363 39.38710363zM630.14888334 423.38710363h-433.22499982c-21.75238548 0-39.38710363-17.636099-39.38710363-39.38710363s17.636099-39.38710363 39.38710363-39.38710363h433.22499982c21.75238548 0 39.38710363 17.636099 39.38710364 39.38710363s-17.636099 39.38710363-39.38710364 39.38710363zM512 226.46401302000004h-315.07473564c-21.75238548 0-39.38710363-17.636099-39.38710362-39.38710363s17.636099-39.38710363 39.38710362-39.38710364h315.07473564c21.75238548 0 39.38710363 17.636099 39.38710363 39.38710364s-17.636099 39.38710363-39.38710363 39.38710363z"  horiz-adv-x="1417" />

    
    <glyph glyph-name="xinaixin" unicode="&#59005;" d="M1167.91 791.42l-3.557 3.556C1031.804 925.533 820.467 930.084 682.371 805.5 544.276 930.084 332.937 925.39 200.388 794.976 65.137 661.43 63.572 443.55 197.117 308.156l3.27-3.27L604.15-95.178c42.382-43.235 111.785-43.804 155.02-1.423l1.422 1.423 403.761 399.78c135.394 133.402 137.1 351.425 3.556 486.818z m-132.123-284.297c-9.956 0-18.204 8.106-18.204 18.204 0 65.563-53.19 118.754-118.753 118.754-4.836 0-9.53 1.99-12.942 5.404-3.414 3.413-5.405 8.107-5.405 12.942a18.148 18.148 0 0 0 18.205 18.204c85.758 0 155.303-69.545 155.303-155.304 0-9.955-8.107-18.204-18.204-18.204z"  horiz-adv-x="1628" />

    
    <glyph glyph-name="Triangle" unicode="&#58880;" d="M567.61344 147.58911999999998l386.82624 422.09792c11.6992 12.57984 11.6992 27.70944 0.10752 40.47872-11.6992 12.67712-32.42496 20.24448-55.71584 20.24448H125.0816c-23.28576 0-44.11392-7.56736-55.71072-20.24448-5.79584-6.38464-8.74496-13.3632-8.74496-20.23936 0-6.97856 2.944-13.952 8.74496-20.23936l386.83136-422.09792c11.59168-12.67712 32.51712-20.23936 55.7056-20.23936 23.28064 0 44.2112 7.56736 55.7056 20.23936z"  horiz-adv-x="1024" />

    


  </font>
</defs>
</svg>
